<svg xmlns="http://www.w3.org/2000/svg" viewBox="0 0 120 120" fill="none">
  <!-- Person with gear/settings -->
  <circle cx="60" cy="35" r="18" fill="#FFD6B3"/>
  <circle cx="60" cy="35" r="18" stroke="#F7931E" stroke-width="2"/>
  <!-- Face -->
  <circle cx="54" cy="32" r="2" fill="#0A2540"/>
  <circle cx="66" cy="32" r="2" fill="#0A2540"/>
  <path d="M55 40 Q60 45 65 40" stroke="#0A2540" stroke-width="2" fill="none" stroke-linecap="round"/>
  <!-- Body -->
  <path d="M35 95 Q35 65 60 60 Q85 65 85 95" fill="#0A2540"/>
  <!-- Gear icon -->
  <circle cx="90" cy="75" r="15" fill="#F7931E" opacity="0.2"/>
  <path d="M90 65 L90 68 M90 82 L90 85 M80 75 L83 75 M97 75 L100 75 M83 68 L85.5 70.5 M94.5 79.5 L97 82 M83 82 L85.5 79.5 M94.5 70.5 L97 68" stroke="#F7931E" stroke-width="2" stroke-linecap="round"/>
  <circle cx="90" cy="75" r="5" stroke="#F7931E" stroke-width="2" fill="none"/>
</svg>
