<svg xmlns="http://www.w3.org/2000/svg" viewBox="0 0 120 120" fill="none">
  <!-- Delivery person -->
  <circle cx="45" cy="30" r="14" fill="#FFD6B3"/>
  <circle cx="40" cy="28" r="2" fill="#0A2540"/>
  <circle cx="50" cy="28" r="2" fill="#0A2540"/>
  <path d="M42 35 Q45 38 48 35" stroke="#0A2540" stroke-width="1.5" fill="none" stroke-linecap="round"/>
  <!-- Cap -->
  <path d="M30 26 Q45 15 60 26" fill="#F7931E"/>
  <!-- Body with uniform -->
  <path d="M25 90 Q25 55 45 50 Q65 55 65 90" fill="#F7931E"/>
  <!-- Package/box -->
  <rect x="60" y="55" width="45" height="35" rx="4" fill="#FFE4C4" stroke="#F7931E" stroke-width="2"/>
  <line x1="60" y1="68" x2="105" y2="68" stroke="#F7931E" stroke-width="2"/>
  <line x1="82" y1="55" x2="82" y2="90" stroke="#F7931E" stroke-width="2" stroke-dasharray="4 4"/>
  <!-- Hand holding box -->
  <rect x="55" y="65" width="10" height="15" rx="2" fill="#FFD6B3"/>
  <!-- Small truck wheel hint -->
  <circle cx="75" cy="100" r="8" fill="#0A2540"/>
  <circle cx="75" cy="100" r="4" fill="#fff"/>
  <circle cx="95" cy="100" r="8" fill="#0A2540"/>
  <circle cx="95" cy="100" r="4" fill="#fff"/>
</svg>
